<svg id="visual" viewBox="0 0 450 900" width="450" height="900" xmlns="http://www.w3.org/2000/svg" xmlns:xlink="http://www.w3.org/1999/xlink" version="1.1"><rect x="0" y="0" width="450" height="900" fill="#635FC7"></rect><defs><linearGradient id="grad1_0" x1="0%" y1="100%" x2="100%" y2="0%"><stop offset="30%" stop-color="#635fc7" stop-opacity="1"></stop><stop offset="70%" stop-color="#635fc7" stop-opacity="1"></stop></linearGradient></defs><defs><linearGradient id="grad2_0" x1="0%" y1="100%" x2="100%" y2="0%"><stop offset="30%" stop-color="#635fc7" stop-opacity="1"></stop><stop offset="70%" stop-color="#635fc7" stop-opacity="1"></stop></linearGradient></defs><g transform="translate(450, 900)"><path d="M-238 0C-237.6 -19.9 -237.3 -39.8 -239.5 -64.2C-241.8 -88.6 -246.8 -117.5 -233.8 -135C-220.9 -152.5 -190 -158.7 -167.6 -167.6C-145.1 -176.5 -131.1 -188 -115 -199.2C-98.9 -210.3 -80.8 -221 -61.3 -228.9C-41.8 -236.8 -20.9 -241.9 0 -247L0 0Z" fill="#FFFFFF"></path></g><g transform="translate(0, 0)"><path d="M245 0C247.2 20.8 249.4 41.6 251.1 67.3C252.9 93 254.1 123.5 233.8 135C213.5 146.5 171.6 139 152.7 152.7C133.8 166.4 137.9 201.3 126.5 219.1C115.1 236.9 88.4 237.7 64.7 241.5C41.1 245.3 20.5 252.1 0 259L0 0Z" fill="#FFFFFF"></path></g></svg>