<svg id="visual" viewBox="0 0 768 1080" width="768" height="1080" xmlns="http://www.w3.org/2000/svg" xmlns:xlink="http://www.w3.org/1999/xlink" version="1.1"><rect x="0" y="0" width="768" height="1080" fill="#635FC7"></rect><defs><linearGradient id="grad1_0" x1="0%" y1="100%" x2="100%" y2="0%"><stop offset="30%" stop-color="#635fc7" stop-opacity="1"></stop><stop offset="70%" stop-color="#635fc7" stop-opacity="1"></stop></linearGradient></defs><defs><linearGradient id="grad2_0" x1="0%" y1="100%" x2="100%" y2="0%"><stop offset="30%" stop-color="#635fc7" stop-opacity="1"></stop><stop offset="70%" stop-color="#635fc7" stop-opacity="1"></stop></linearGradient></defs><g transform="translate(768, 1080)"><path d="M-298.2 0C-296.5 -40.4 -294.7 -80.9 -275.5 -114.1C-256.2 -147.3 -219.4 -173.3 -184.6 -184.6C-149.7 -195.8 -116.9 -192.3 -86.5 -208.8C-56.1 -225.3 -28 -261.7 0 -298.2L0 0Z" fill="#FFFFFF"></path></g><g transform="translate(0, 0)"><path d="M298.2 0C300.2 45.1 302.2 90.3 275.5 114.1C248.8 138 193.4 140.5 163.3 163.3C133.3 186.1 128.6 229.1 105.6 255C82.6 280.8 41.3 289.5 0 298.2L0 0Z" fill="#FFFFFF"></path></g></svg>