<svg id="visual" viewBox="0 0 450 900" width="450" height="900" xmlns="http://www.w3.org/2000/svg" xmlns:xlink="http://www.w3.org/1999/xlink" version="1.1"><rect x="0" y="0" width="450" height="900" fill="#FFFFFF"></rect><defs><linearGradient id="grad1_0" x1="0%" y1="100%" x2="100%" y2="0%"><stop offset="30%" stop-color="#ffffff" stop-opacity="1"></stop><stop offset="70%" stop-color="#ffffff" stop-opacity="1"></stop></linearGradient></defs><defs><linearGradient id="grad2_0" x1="0%" y1="100%" x2="100%" y2="0%"><stop offset="30%" stop-color="#ffffff" stop-opacity="1"></stop><stop offset="70%" stop-color="#ffffff" stop-opacity="1"></stop></linearGradient></defs><g transform="translate(450, 900)"><path d="M-247.5 0C-237.8 -29.4 -228.1 -58.8 -218 -90.3C-208 -121.8 -197.5 -155.5 -175 -175C-152.5 -194.5 -118 -200 -86.9 -209.7C-55.7 -219.5 -27.8 -233.5 0 -247.5L0 0Z" fill="#635fc7"></path></g><g transform="translate(0, 0)"><path d="M247.5 0C246.8 35 246 69.9 228.7 94.7C211.3 119.5 177.4 134.1 152 152C126.7 170 110 191.4 86.1 207.9C62.2 224.4 31.1 235.9 0 247.5L0 0Z" fill="#635fc7"></path></g></svg>