<svg id="visual" viewBox="0 0 450 900" width="450" height="900" xmlns="http://www.w3.org/2000/svg" xmlns:xlink="http://www.w3.org/1999/xlink" version="1.1"><rect x="0" y="0" width="450" height="900" fill="#FFFFFF"></rect><defs><linearGradient id="grad1_0" x1="0%" y1="100%" x2="100%" y2="0%"><stop offset="30%" stop-color="#ffffff" stop-opacity="1"></stop><stop offset="70%" stop-color="#ffffff" stop-opacity="1"></stop></linearGradient></defs><defs><linearGradient id="grad2_0" x1="0%" y1="100%" x2="100%" y2="0%"><stop offset="30%" stop-color="#ffffff" stop-opacity="1"></stop><stop offset="70%" stop-color="#ffffff" stop-opacity="1"></stop></linearGradient></defs><g transform="translate(450, 900)"><path d="M-248 0C-250 -23.2 -251.9 -46.4 -245.3 -65.7C-238.8 -85 -223.6 -100.4 -216.5 -125C-209.4 -149.6 -210.4 -183.4 -190.9 -190.9C-171.5 -198.5 -131.5 -179.8 -109 -188.8C-86.5 -197.8 -81.3 -234.5 -66 -246.3C-50.7 -258.1 -25.4 -245.1 0 -232L0 0Z" fill="#635FC7"></path></g><g transform="translate(0, 0)"><path d="M229 0C243.6 23.5 258.2 47 254 68.1C249.9 89.1 227.1 107.7 206.1 119C185.2 130.3 166.1 134.4 157.7 157.7C149.3 181 151.5 223.4 135 233.8C118.5 244.2 83.1 222.6 57.5 214.4C31.8 206.3 15.9 211.6 0 217L0 0Z" fill="#635FC7"></path></g></svg>