<svg id="visual" viewBox="0 0 1440 900" width="1440" height="900" xmlns="http://www.w3.org/2000/svg" xmlns:xlink="http://www.w3.org/1999/xlink" version="1.1"><rect x="0" y="0" width="1440" height="900" fill="#FFFFFF"></rect><defs><linearGradient id="grad1_0" x1="37.5%" y1="100%" x2="100%" y2="0%"><stop offset="17.999999999999996%" stop-color="#ffffff" stop-opacity="1"></stop><stop offset="82%" stop-color="#ffffff" stop-opacity="1"></stop></linearGradient></defs><defs><linearGradient id="grad2_0" x1="0%" y1="100%" x2="62.5%" y2="0%"><stop offset="17.999999999999996%" stop-color="#ffffff" stop-opacity="1"></stop><stop offset="82%" stop-color="#ffffff" stop-opacity="1"></stop></linearGradient></defs><g transform="translate(1440, 900)"><path d="M-509.4 0C-463.2 -42.2 -417.1 -84.5 -390.9 -127C-364.7 -169.5 -358.6 -212.3 -337.4 -245.1C-316.2 -277.9 -279.9 -300.7 -250.4 -344.6C-220.9 -388.5 -198 -453.5 -157.4 -484.5C-116.8 -515.5 -58.4 -512.5 0 -509.4L0 0Z" fill="#635fc7"></path></g><g transform="translate(0, 0)"><path d="M509.4 0C461.7 42.9 414 85.7 390.9 127C367.7 168.3 369.1 208 362.4 263.3C355.7 318.7 340.9 389.7 299.4 412.1C257.9 434.6 189.7 408.4 135.3 416.6C81 424.7 40.5 467.1 0 509.4L0 0Z" fill="#635fc7"></path></g></svg>