<svg id="visual" viewBox="0 0 1440 900" width="1440" height="900" xmlns="http://www.w3.org/2000/svg" xmlns:xlink="http://www.w3.org/1999/xlink" version="1.1"><rect x="0" y="0" width="1440" height="900" fill="#635FC7"></rect><defs><linearGradient id="grad1_0" x1="37.5%" y1="100%" x2="100%" y2="0%"><stop offset="17.999999999999996%" stop-color="#635fc7" stop-opacity="1"></stop><stop offset="82%" stop-color="#635fc7" stop-opacity="1"></stop></linearGradient></defs><defs><linearGradient id="grad2_0" x1="0%" y1="100%" x2="62.5%" y2="0%"><stop offset="17.999999999999996%" stop-color="#635fc7" stop-opacity="1"></stop><stop offset="82%" stop-color="#635fc7" stop-opacity="1"></stop></linearGradient></defs><g transform="translate(1440, 900)"><path d="M-432 0C-413 -31.2 -394.1 -62.4 -402.8 -107.9C-411.5 -153.5 -448 -213.4 -441.2 -254.7C-434.4 -296 -384.4 -318.6 -345.8 -345.8C-307.1 -373 -279.8 -404.8 -242.5 -420C-205.2 -435.2 -158 -433.8 -116 -432.7C-73.9 -431.6 -36.9 -430.8 0 -430L0 0Z" fill="#FFFFFF"></path></g><g transform="translate(0, 0)"><path d="M481 0C463.6 41.1 446.1 82.2 421.1 112.8C396.2 143.5 363.7 163.7 353.3 204C343 244.3 354.7 304.7 335.2 335.2C315.7 365.6 265 366.1 228 394.9C191 423.7 167.6 480.7 131.9 492.1C96.1 503.5 48.1 469.2 0 435L0 0Z" fill="#FFFFFF"></path></g></svg>